<svg width="80" height="80" viewBox="0 0 80 80" xmlns="http://www.w3.org/2000/svg">
<path d="M10 40H40V45H10V40Z" />
<path d="M5 27.5H30V32.5H5V27.5Z" />
<path d="M74.7975 41.515L67.2975 24.015C67.105 23.5652 66.7847 23.1818 66.3762 22.9125C65.9678 22.6432 65.4893 22.4997 65 22.5H57.5V17.5C57.5 16.837 57.2366 16.2011 56.7678 15.7322C56.2989 15.2634 55.663 15 55 15H15V20H52.5V51.39C51.3608 52.0515 50.3639 52.932 49.5666 53.9806C48.7694 55.0293 48.1877 56.2254 47.855 57.5H32.145C31.5365 55.1434 30.0894 53.0895 28.075 51.7235C26.0605 50.3575 23.617 49.773 21.2025 50.0797C18.788 50.3864 16.5682 51.5632 14.9592 53.3894C13.3502 55.2157 12.4625 57.5661 12.4625 60C12.4625 62.4339 13.3502 64.7843 14.9592 66.6106C16.5682 68.4369 18.788 69.6136 21.2025 69.9203C23.617 70.227 26.0605 69.6425 28.075 68.2765C30.0894 66.9105 31.5365 64.8567 32.145 62.5H47.855C48.3988 64.6456 49.6426 66.5486 51.3894 67.9079C53.1363 69.2673 55.2866 70.0053 57.5 70.0053C59.7134 70.0053 61.8637 69.2673 63.6106 67.9079C65.3574 66.5486 66.6012 64.6456 67.145 62.5H72.5C73.163 62.5 73.7989 62.2366 74.2678 61.7678C74.7366 61.2989 75 60.6631 75 60V42.5C75.0001 42.1613 74.9312 41.8262 74.7975 41.515ZM22.5 65C21.5111 65 20.5444 64.7068 19.7221 64.1574C18.8999 63.6079 18.259 62.8271 17.8806 61.9134C17.5022 60.9998 17.4031 59.9945 17.5961 59.0246C17.789 58.0547 18.2652 57.1637 18.9645 56.4645C19.6637 55.7652 20.5546 55.289 21.5245 55.0961C22.4945 54.9032 23.4998 55.0022 24.4134 55.3806C25.327 55.759 26.1079 56.3999 26.6573 57.2222C27.2068 58.0444 27.5 59.0111 27.5 60C27.4987 61.3257 26.9715 62.5967 26.0341 63.5341C25.0967 64.4715 23.8257 64.9987 22.5 65ZM57.5 27.5H63.35L68.71 40H57.5V27.5ZM57.5 65C56.5111 65 55.5444 64.7068 54.7221 64.1574C53.8999 63.6079 53.259 62.8271 52.8806 61.9134C52.5022 60.9998 52.4031 59.9945 52.5961 59.0246C52.789 58.0547 53.2652 57.1637 53.9645 56.4645C54.6637 55.7652 55.5546 55.289 56.5245 55.0961C57.4944 54.9032 58.4998 55.0022 59.4134 55.3806C60.327 55.759 61.1079 56.3999 61.6573 57.2222C62.2067 58.0444 62.5 59.0111 62.5 60C62.4987 61.3257 61.9715 62.5967 61.0341 63.5341C60.0967 64.4715 58.8257 64.9987 57.5 65ZM70 57.5H67.145C66.5943 55.3586 65.3486 53.4604 63.6031 52.1032C61.8576 50.7459 59.7111 50.0062 57.5 50V45H70V57.5Z"/>
</svg>
