<svg width="32" height="32" viewBox="0 0 32 32" fill="none" xmlns="http://www.w3.org/2000/svg">
<path d="M0 0H31.9968V32H0V0Z" fill="#012169"/>
<path d="M0 0V3.5776L28.4196 32H31.9968V28.4224L3.57724 0.0064H0V0ZM31.9968 0V3.5776L3.57724 32H0V28.4224L28.4196 0H31.9968Z" fill="white"/>
<path d="M13.3331 0V32H18.6637V0H13.3331ZM0 10.6688V21.3312H31.9968V10.6688H0Z" fill="white"/>
<path d="M0 12.8V19.2H31.9968V12.8H0ZM14.3986 0V32H17.5982V0H14.3986ZM0 32L10.6645 21.3312H13.0547L2.38376 32H0ZM0 0L10.6645 10.6688H8.28077L0 2.3872V0ZM18.9453 10.6688L29.613 0H31.9968L21.3323 10.6688H18.9421H18.9453ZM32 32L21.3291 21.3312H23.7128L31.9968 29.6128V32H32Z" fill="#C8102E"/>
</svg>
