<svg width="26" height="24" viewBox="0 0 26 24" xmlns="http://www.w3.org/2000/svg">
<path fill-rule="evenodd" clip-rule="evenodd" d="M8.46348 1.066C9.66928 1.012 10.0537 1 13.1253 1C16.1969 1 16.5813 1.013 17.7861 1.066C18.9909 1.119 19.8132 1.306 20.5328 1.577C21.2863 1.854 21.9699 2.287 22.5353 2.847C23.1109 3.396 23.555 4.06 23.8387 4.794C24.1183 5.494 24.3095 6.294 24.3651 7.464C24.4206 8.639 24.4329 9.013 24.4329 12C24.4329 14.988 24.4195 15.362 24.3651 16.535C24.3106 17.705 24.1183 18.505 23.8387 19.205C23.555 19.9391 23.1102 20.6042 22.5353 21.154C21.9699 21.714 21.2863 22.146 20.5328 22.422C19.8132 22.694 18.9909 22.88 17.7881 22.934C16.5813 22.988 16.1969 23 13.1253 23C10.0537 23 9.66928 22.987 8.46348 22.934C7.26076 22.881 6.43839 22.694 5.71881 22.422C4.9642 22.146 4.28051 21.7133 3.71531 21.154C3.14004 20.6047 2.69486 19.9399 2.41082 19.206C2.13225 18.506 1.94104 17.706 1.88553 16.536C1.83002 15.361 1.81769 14.987 1.81769 12C1.81769 9.012 1.83105 8.638 1.88553 7.466C1.94002 6.294 2.13225 5.494 2.41082 4.794C2.69528 4.06008 3.1408 3.39531 3.71634 2.846C4.28073 2.2865 4.96374 1.85344 5.71778 1.577C6.43736 1.306 7.25973 1.12 8.46245 1.066H8.46348ZM17.6946 3.046C16.5022 2.993 16.1444 2.982 13.1253 2.982C10.1062 2.982 9.74843 2.993 8.55599 3.046C7.45299 3.095 6.85471 3.274 6.45586 3.425C5.92852 3.625 5.55125 3.862 5.15549 4.247C4.78033 4.60205 4.49161 5.03428 4.3105 5.512C4.15528 5.9 3.97127 6.482 3.9209 7.555C3.86642 8.715 3.85511 9.063 3.85511 12C3.85511 14.937 3.86642 15.285 3.9209 16.445C3.97127 17.518 4.15528 18.1 4.3105 18.488C4.49142 18.965 4.78028 19.398 5.15549 19.753C5.52042 20.118 5.96552 20.399 6.45586 20.575C6.85471 20.726 7.45299 20.905 8.55599 20.954C9.74843 21.007 10.1051 21.018 13.1253 21.018C16.1455 21.018 16.5022 21.007 17.6946 20.954C18.7976 20.905 19.3959 20.726 19.7947 20.575C20.3221 20.375 20.6993 20.138 21.0951 19.753C21.4703 19.398 21.7592 18.965 21.9401 18.488C22.0953 18.1 22.2793 17.518 22.3297 16.445C22.3842 15.285 22.3955 14.937 22.3955 12C22.3955 9.063 22.3842 8.715 22.3297 7.555C22.2793 6.482 22.0953 5.9 21.9401 5.512C21.7345 4.999 21.4909 4.632 21.0951 4.247C20.7301 3.88207 20.2858 3.60121 19.7947 3.425C19.3959 3.274 18.7976 3.095 17.6946 3.046ZM11.681 15.391C12.4876 15.7176 13.3858 15.7617 14.2221 15.5157C15.0584 15.2697 15.7809 14.7489 16.2664 14.0422C16.7518 13.3356 16.9699 12.4869 16.8836 11.6411C16.7972 10.7953 16.4117 10.005 15.7929 9.405C15.3984 9.02148 14.9214 8.72781 14.3962 8.54515C13.871 8.36248 13.3108 8.29536 12.7557 8.34862C12.2007 8.40187 11.6647 8.57418 11.1864 8.85313C10.708 9.13208 10.2992 9.51074 9.98929 9.96185C9.67942 10.413 9.47622 10.9253 9.39431 11.462C9.31241 11.9986 9.35385 12.5463 9.51564 13.0655C9.67743 13.5847 9.95555 14.0626 10.33 14.4647C10.7044 14.8668 11.1658 15.1832 11.681 15.391ZM9.01549 8.002C9.5552 7.47697 10.1959 7.0605 10.9011 6.77636C11.6062 6.49222 12.362 6.34597 13.1253 6.34597C13.8886 6.34597 14.6443 6.49222 15.3495 6.77636C16.0547 7.0605 16.6954 7.47697 17.2351 8.002C17.7748 8.52702 18.2029 9.15032 18.495 9.8363C18.7871 10.5223 18.9374 11.2575 18.9374 12C18.9374 12.7425 18.7871 13.4777 18.495 14.1637C18.2029 14.8497 17.7748 15.473 17.2351 15.998C16.1451 17.0583 14.6668 17.654 13.1253 17.654C11.5838 17.654 10.1055 17.0583 9.01549 15.998C7.92551 14.9377 7.31316 13.4995 7.31316 12C7.31316 10.5005 7.92551 9.06234 9.01549 8.002ZM20.2265 7.188C20.3602 7.06527 20.4673 6.91768 20.5413 6.75397C20.6154 6.59027 20.6549 6.41377 20.6576 6.23493C20.6603 6.05609 20.6261 5.87855 20.5569 5.71281C20.4878 5.54707 20.3852 5.39651 20.2552 5.27004C20.1252 5.14357 19.9704 5.04376 19.8001 4.97652C19.6297 4.90928 19.4472 4.87598 19.2633 4.87858C19.0795 4.88119 18.8981 4.91965 18.7298 4.9917C18.5615 5.06374 18.4098 5.1679 18.2836 5.298C18.0383 5.55103 17.9039 5.88712 17.9091 6.23493C17.9143 6.58274 18.0587 6.91488 18.3115 7.16084C18.5644 7.40681 18.9058 7.54723 19.2633 7.5523C19.6209 7.55737 19.9664 7.42669 20.2265 7.188Z"/>
</svg>
