<svg width="25" height="24" viewBox="0 0 25 24" fill="none" xmlns="http://www.w3.org/2000/svg">
<path d="M12.3356 13C14.0388 13 15.4195 11.6569 15.4195 10C15.4195 8.34315 14.0388 7 12.3356 7C10.6324 7 9.25168 8.34315 9.25168 10C9.25168 11.6569 10.6324 13 12.3356 13Z" stroke="#F4F4F9" stroke-width="2" stroke-linecap="round" stroke-linejoin="round"/>
<path d="M12.3356 2C10.1545 2 8.06278 2.84285 6.52053 4.34315C4.97829 5.84344 4.11186 7.87827 4.11186 10C4.11186 11.892 4.5251 13.13 5.65381 14.5L12.3356 22L19.0173 14.5C20.146 13.13 20.5593 11.892 20.5593 10C20.5593 7.87827 19.6929 5.84344 18.1506 4.34315C16.6084 2.84285 14.5166 2 12.3356 2V2Z" stroke="#F4F4F9" stroke-width="2" stroke-linecap="round" stroke-linejoin="round"/>
</svg>
