<svg width="26" height="24" viewBox="0 0 26 24" fill="none" xmlns="http://www.w3.org/2000/svg">
  <path d="M22.2628 4.5H3.75949C3.35054 4.5 2.95834 4.65804 2.66917 4.93934C2.38 5.22064 2.21754 5.60218 2.21754 6V18C2.21754 18.3978 2.38 18.7794 2.66917 19.0607C2.95834 19.342 3.35054 19.5 3.75949 19.5H22.2628C22.6718 19.5 23.064 19.342 23.3532 19.0607C23.6423 18.7794 23.8048 18.3978 23.8048 18V6C23.8048 5.60218 23.6423 5.22064 23.3532 4.93934C23.064 4.65804 22.6718 4.5 22.2628 4.5ZM20.5667 6L13.0112 11.085L5.45563 6H20.5667ZM3.75949 18V6.6825L12.5717 12.615C12.7008 12.7021 12.8541 12.7488 13.0112 12.7488C13.1682 12.7488 13.3216 12.7021 13.4506 12.615L22.2628 6.6825V18H3.75949Z" fill="#F4F4F9"/>
</svg>
