<svg width="80" height="80" viewBox="0 0 80 80" xmlns="http://www.w3.org/2000/svg">
  <path d="M40 73.3333C52.8633 73.3333 63.3333 62.8633 63.3333 50C63.3333 37.1366 52.8633 26.6666 40 26.6666C27.1333 26.6666 16.6667 37.1366 16.6667 50C16.6667 62.8633 27.1333 73.3333 40 73.3333ZM40 33.3333C49.19 33.3333 56.6667 40.81 56.6667 50C56.6667 59.19 49.19 66.6666 40 66.6666C30.81 66.6666 23.3333 59.19 23.3333 50C23.3333 40.81 30.81 33.3333 40 33.3333ZM36.6667 6.66663H23.3333V25.06C27.3223 22.3907 31.8959 20.7225 36.6667 20.1966V6.66663ZM56.6667 6.66663H43.3333V20.1966C48.1041 20.7225 52.6777 22.3907 56.6667 25.06V6.66663Z"/>
  <path d="M33.3966 52.7033L31.8366 61.79L40 57.5L48.1633 61.79L46.6033 52.7033L53.21 46.2633L44.0833 44.9366L40 36.6666L35.9166 44.9366L26.79 46.2633L33.3966 52.7033Z"/>
</svg>
