<svg width="26" height="24" viewBox="0 0 26 24" fill="none" xmlns="http://www.w3.org/2000/svg">
<path d="M11.5247 6.24003L8.04713 2.33503C7.64622 1.88503 6.91123 1.88703 6.44556 2.34103L3.58576 5.12803C2.73461 5.95703 2.49098 7.18803 2.98338 8.17503C5.92502 14.1 10.8371 18.8851 16.9236 21.755C17.9372 22.234 19.2016 21.997 20.0527 21.168L22.9392 18.355C23.407 17.9 23.408 17.181 22.9413 16.791L18.9117 13.426C18.4902 13.074 17.8354 13.12 17.4129 13.532L16.0108 14.898C15.939 14.9712 15.8445 15.0195 15.7418 15.0354C15.6391 15.0513 15.5339 15.0339 15.4423 14.986C13.1504 13.7021 11.2492 11.8503 9.93241 9.61903C9.8831 9.52978 9.86524 9.42726 9.88158 9.32719C9.89792 9.22711 9.94756 9.13502 10.0229 9.06503L11.4209 7.70403C11.8444 7.29003 11.8907 6.65003 11.5247 6.23903V6.24003Z" stroke="#F4F4F9" stroke-width="2" stroke-linecap="round" stroke-linejoin="round"/>
</svg>
