<svg width="26" height="24" viewBox="0 0 26 24" xmlns="http://www.w3.org/2000/svg">
<path d="M24.8836 4.93708C24.0252 5.30708 23.1031 5.55708 22.1338 5.67008C23.134 5.08787 23.8823 4.17154 24.239 3.09208C23.2993 3.63507 22.2708 4.01727 21.1983 4.22208C20.4771 3.47294 19.5218 2.9764 18.4807 2.80955C17.4396 2.6427 16.3711 2.81487 15.4409 3.29933C14.5108 3.78379 13.771 4.55344 13.3366 5.48878C12.9022 6.42412 12.7973 7.47283 13.0383 8.47208C11.1342 8.37907 9.27148 7.89763 7.57102 7.05898C5.87056 6.22034 4.37037 5.04324 3.16781 3.60408C2.75663 4.29408 2.5202 5.09408 2.5202 5.94608C2.51974 6.71307 2.7139 7.46832 3.08545 8.14481C3.45701 8.8213 3.99446 9.39812 4.65014 9.82408C3.88973 9.80054 3.1461 9.60066 2.48113 9.24108V9.30108C2.48106 10.3768 2.86357 11.4195 3.56377 12.2521C4.26397 13.0847 5.23872 13.656 6.32264 13.8691C5.61723 14.0548 4.87767 14.0821 4.1598 13.9491C4.46562 14.8747 5.06132 15.6841 5.86351 16.264C6.66571 16.8439 7.63423 17.1653 8.6335 17.1831C6.93719 18.4785 4.84225 19.1812 2.6857 19.1781C2.30369 19.1782 1.922 19.1565 1.5426 19.1131C3.73163 20.4823 6.27981 21.2089 8.88227 21.2061C17.6919 21.2061 22.5079 14.1081 22.5079 7.95208C22.5079 7.75208 22.5028 7.55008 22.4935 7.35008C23.4303 6.69105 24.2389 5.87497 24.8815 4.94008L24.8836 4.93708Z" />
</svg>
