<svg width="25" height="24" viewBox="0 0 25 24" xmlns="http://www.w3.org/2000/svg">
  <path fill-rule="evenodd" clip-rule="evenodd" d="M24.1058 5.948C24.2764 5.402 24.1058 5 23.2885 5H20.5901C19.9034 5 19.5868 5.347 19.4152 5.73C19.4152 5.73 18.0428 8.926 16.0989 11.002C15.4698 11.604 15.1841 11.795 14.8407 11.795C14.6691 11.795 14.411 11.604 14.411 11.057V5.948C14.411 5.292 14.2219 5 13.6503 5H9.4069C8.97824 5 8.72022 5.304 8.72022 5.593C8.72022 6.214 9.69267 6.358 9.79239 8.106V11.904C9.79239 12.737 9.63511 12.888 9.29177 12.888C8.37688 12.888 6.15134 9.677 4.8304 6.003C4.57444 5.288 4.31539 5 3.62563 5H0.925168C0.154195 5 0 5.347 0 5.73C0 6.412 0.914888 9.8 4.26091 14.281C6.49159 17.341 9.63202 19 12.4928 19C14.2085 19 14.4203 18.632 14.4203 17.997V15.684C14.4203 14.947 14.5827 14.8 15.1265 14.8C15.5274 14.8 16.2131 14.992 17.8146 16.467C19.6444 18.216 19.9456 19 20.9756 19H23.674C24.445 19 24.8315 18.632 24.6095 17.904C24.3648 17.18 23.491 16.129 22.3325 14.882C21.7034 14.172 20.7597 13.407 20.4729 13.024C20.0731 12.533 20.1872 12.314 20.4729 11.877C20.4729 11.877 23.7624 7.451 24.1047 5.948H24.1058Z" />
</svg>
