<svg width="26" height="24" viewBox="0 0 26 24" xmlns="http://www.w3.org/2000/svg">
  <path d="M24.8418 6.50708C24.7021 6.02231 24.4299 5.58342 24.0543 5.23708C23.6681 4.88008 23.1947 4.62471 22.6789 4.49508C20.7484 4.00008 13.014 4.00008 13.014 4.00008C9.78961 3.96439 6.56602 4.12135 3.36141 4.47008C2.84557 4.60929 2.37309 4.87036 1.986 5.23008C1.60565 5.58608 1.33016 6.02508 1.18624 6.50608C0.840529 8.31782 0.672559 10.1574 0.684594 12.0001C0.672259 13.8411 0.839817 15.6801 1.18624 17.4941C1.32707 17.9731 1.60154 18.4101 1.98291 18.7631C2.36429 19.1161 2.83921 19.3711 3.36141 19.5061C5.31763 20.0001 13.014 20.0001 13.014 20.0001C16.2425 20.0358 19.4702 19.8789 22.6789 19.5301C23.1947 19.4004 23.6681 19.1451 24.0543 18.7881C24.4347 18.4351 24.705 17.9961 24.8407 17.5181C25.1955 15.707 25.3679 13.8667 25.3557 12.0231C25.3824 10.1717 25.2102 8.32264 24.8418 6.50608V6.50708ZM10.5551 15.4241V8.57708L16.9902 12.0011L10.5551 15.4241Z" />
</svg>
